# xmcd
#
# Track frame offsets: 
#        150
#        15075
#        32957
#        55937
#        76316
#        97310
#        114744
#        134604
#        151085
#        167810
#        182654
#
# Disc length: 2576 seconds
#
# Revision: 5
# Processed by: cddbd v1.5.2PL0 Copyright (c) Steve Scherf et al.
# Submitted via: ExactAudioCopy v0.99pb5
#
DISCID=8a0a0e0b
DTITLE=????? ????? - ??????????
DYEAR=2000
DGENRE=Rock
TTITLE0=? ?? ???? ???
TTITLE1=??? ????
TTITLE2=???? ????
TTITLE3=?????
TTITLE4=???????
TTITLE5=????????
TTITLE6=??????
TTITLE7=??????
TTITLE8=??????
TTITLE9=???? ???? ????
TTITLE10=????
EXTD=YEAR: 2000
EXTT0=
EXTT1=
EXTT2=
EXTT3=
EXTT4=
EXTT5=
EXTT6=
EXTT7=
EXTT8=
EXTT9=
EXTT10=
PLAYORDER=
